<svg xmlns="http://www.w3.org/2000/svg" viewBox="0 0 129.7 248.8"><defs><style>.cls-1{fill:#429afe;}.cls-2{fill:#8716cb;}.cls-3{fill:#3146f4;}.cls-4{fill:#1c277d;}.cls-5{fill:#32bbda;}.cls-6{fill:#3c1f94;}</style></defs><g id="Layer_2" data-name="Layer 2"><g id="Layer_1-2" data-name="Layer 1"><path class="cls-1" d="M108.62,39.29q-2-17.25-3.9-34.51c-.18-1.6.4-3.3-.64-4.78.51,3.27-1.21,4-4.14,4.47C61.26,10.76,31.1,30.26,9.91,63.4c-5.1,8-5,8,2.92,12.74,2.53,3.62,6.77,4.73,10.33,6.67,10.33,5.64,20.9,10.84,31.31,16.34,8.81,4.29,8.73,4.23,14.54-3.77,9.6-13.21,22.54-21.13,38.53-24.15,1.58-.3,3.36-.09,4.61-1.48a3.87,3.87,0,0,0,.35-1.57c-1.17-9.12-1-18.4-3.19-27.4A2.17,2.17,0,0,0,108.62,39.29Z"/><path class="cls-2" d="M17.63,191.81c12.13,20.92,29.74,35.69,51.36,46,3.76,1.6,4.54-1.49,5.55-3.76,4.08-9.16,8.17-18.32,11.93-27.61a29,29,0,0,1,2.13-5.31c.74-1.75,1.91-3.37,1.76-5.41-.6-2-2.4-2.62-4-3.47-9.88-5.32-18.47-12.12-24.83-21.53-1.17-1.72-2.2-3.78-4.64-4.18-12.77,7.32-25.26,15.11-37.72,22.93A2.62,2.62,0,0,0,17.63,191.81Z"/><path class="cls-3" d="M55.12,98.18l-42.29-22C3.84,95.41-1,115.53.19,136.93c.11,2-.1,4,.81,5.88a4.28,4.28,0,0,0,3.73.89c13.5-1.51,27.06-2.48,40.53-4.32a6.7,6.7,0,0,0,2.34-.8A3.7,3.7,0,0,0,49,135c-1-11.33,1.24-22.1,5.66-32.5A5.87,5.87,0,0,0,55.12,98.18Z"/><path class="cls-4" d="M89.85,195.74l-2.07,5.08c-.88,1.58-1,3.49-2.09,5-4,9-8,18.1-12.06,27.11C72.68,235,72.48,238,69,237.79c11.1,5.37,22.91,8.3,35,9.92,8.53,1.14,17.11,1.71,25.67.07q-1.08-14-2.15-27.94c-1.74-6.52-.86-13.42-2.82-19.91a12.31,12.31,0,0,0-5.38-.61,60.76,60.76,0,0,1-23.86-3.47C93.67,195.22,91.76,194.24,89.85,195.74Z"/><path class="cls-5" d="M47.45,137.88c-15.5,1.47-31,2.71-46.45,4.93a105.79,105.79,0,0,0,16.63,49c13.17-8.4,27-15.82,39.75-24.83.74-1.72,0-3.24-.74-4.68a76.29,76.29,0,0,1-7.1-20.87C49.28,140.07,49.25,138.4,47.45,137.88Z"/><path class="cls-6" d="M85.69,205.79c1.75-1.21,2.16-3,2.09-5A6.34,6.34,0,0,0,85.69,205.79Z"/></g></g></svg>