<svg xmlns="http://www.w3.org/2000/svg" viewBox="0 0 114 92"><defs><style>.cls-1{fill:#a8fdda;}.cls-2{fill:#eab3fe;}</style></defs><g id="Layer_2" data-name="Layer 2"><g id="Layer_1-2" data-name="Layer 1"><path class="cls-1" d="M37.63,42H72.74A4.26,4.26,0,0,1,77,46.26V87.74A4.26,4.26,0,0,1,72.74,92H4.26A4.26,4.26,0,0,1,0,87.74V79.63A37.63,37.63,0,0,1,37.63,42Z"/><path class="cls-2" d="M91.06,42h19.87A3.06,3.06,0,0,1,114,45.06V88.94A3.06,3.06,0,0,1,110.94,92h-6.33A16.61,16.61,0,0,1,88,75.39V45.06A3.06,3.06,0,0,1,91.06,42Z"/><path d="M63,0h0A15,15,0,0,1,78,15V30a0,0,0,0,1,0,0H63A15,15,0,0,1,48,15v0A15,15,0,0,1,63,0Z"/></g></g></svg>