<svg xmlns="http://www.w3.org/2000/svg" viewBox="0 0 216.46 255.84"><defs><style>.cls-1{fill:#fff;}</style></defs><g id="Layer_2" data-name="Layer 2"><g id="Layer_1-2" data-name="Layer 1"><path d="M183.16,56.72C192.23,54,195,60,198.78,65.51c6.8,9.9,9.85,20.33,10.26,32.42,1.18,34.93,3.35,69.83,5.11,104.74q1.15,23,2.26,45.89c.3,6.3-.62,7.28-7,7.28H7.18c-6.48,0-7.44-1-7.13-7.11Q4.19,166.19,8.31,83.65A9.62,9.62,0,0,1,9.77,79q5.7-9.36,11.34-18.76c.86-1.43,1.61-3.42,3.36-3.4,5,.06,4.23-3,3.83-6.2-.88-6.93-1.57-13.88-2.48-20.81-.86-6.49-.26-7.53,6.39-8.37q21-2.62,42.12-5a8.31,8.31,0,0,0,5.73-3.22C89.16,2.83,100.68-1.8,114.4.64c14.27,2.54,23.9,11,28.73,24.7,1,2.84,2.21,4.19,5.27,4.84,11,2.34,22,5.22,33,7.65,4.24.93,5.52,3.2,4.57,7.16Z"/><path class="cls-1" d="M107.91,247.1c-31.15,0-62.29-.07-93.43.08-4.23,0-5.81-.48-5.54-5.49,2.71-49.05,5.07-98.11,7.53-147.17.38-7.63.37-7.64,7.9-7.64,56.62,0,113.25.07,169.87-.12,4.44,0,5.5,1.26,5.7,5.41,2,41.75,4.14,83.49,6.25,125.23.43,8.48.61,17,1.35,25.44.33,3.7-.78,4.35-4.21,4.33C171.52,247.05,139.71,247.1,107.91,247.1Z"/><path class="cls-1" d="M61.34,78c-6.48,0-12.63-.09-18.78.05-2.09,0-2.39-1-2.58-2.64C38.31,61,36.65,46.6,34.83,32.24c-.48-3.77,2.47-2.61,3.91-2.79,15.18-1.94,30.4-3.67,45.6-5.45,3.64-.43,7.34-.54,10.9-1.3,2.91-.61,3.46.72,3.72,3,.71,6.45,1.29,12.93,2.31,19.33.53,3.37-1,4.23-3.76,4.87C86.17,52.51,74.87,55.27,63.57,58c-5.46,1.3-6.36,2.65-5.15,8C59.29,69.89,60.3,73.73,61.34,78Z"/><path class="cls-1" d="M124.13,43.21c1.87-9.35,1.87-9.36,10.37-7.38,12.93,3,25.83,6.16,38.8,9,2.93.64,3.44,1.75,2.81,4.36C174,57.87,172,66.6,170,75.34c-.43,1.88-1.25,2.73-3.37,2.68-6.49-.15-13-.21-19.47,0-2.66.09-3.36-1.13-3.86-3.32-2-8.74-4.1-17.45-6.17-26.17-1.65-7-2.61-7.57-9.61-5.91C126.58,42.85,125.63,43,124.13,43.21Z"/><path class="cls-1" d="M135.18,78c-21,0-41.47,0-61.93.06-2.27,0-3.16-.71-3.77-2.8-2.66-9.15-2.71-9.1,6.59-11.33,16-3.83,32-7.66,47.89-11.61,3.29-.82,5.32-.93,6.08,3.36C131.34,63,133.35,70.17,135.18,78Z"/><path class="cls-1" d="M92.4,14.19c14.09-11,35-4.59,41.79,12.48-3.26-.69-6.3-1.18-9.24-2-3.81-1-5.7.71-6.54,4.11-1.09,4.34-2.21,8.68-3,13.08-.46,2.54-1.2,4.9-4.06,4.46-2.44-.37-1.66-3.16-1.89-4.87-1-7.24-1.61-14.52-2.51-21.77-.76-6.1-2-6.94-8.17-6.09C96.87,13.86,95,14,92.4,14.19Z"/><path class="cls-1" d="M195.81,77.82H178.34c.68-3.17,1.18-6.21,2-9.16.39-1.36-.09-3.77,2.41-3.61,2.26.15,4.95-1.21,6.57,1.89C191.17,70.42,193.35,73.72,195.81,77.82Z"/><path class="cls-1" d="M21,77.41c2.23-3.79,4.37-7.45,6.55-11.09.42-.68.92-1.41,2-1.12s.65,1,.75,1.65c.13.81.12,1.65.21,2.47C31.52,79,31.53,79,21,77.41Z"/><path d="M136.34,131.25c0-1.83-.11-3.68,0-5.5.25-3.16-.48-5.26-3.53-7.29-6.25-4.16-6.7-13.39-1.6-18.9a13.08,13.08,0,0,1,19.1.09c5.06,5.56,4.55,14.81-1.75,18.87-3.16,2-3.49,4.19-3.51,7.32,0,5.81.45,11.62-.65,17.43-3.46,18.14-20,31.34-37.91,30.12C87,172.07,72.06,157,71.36,137.9c-.11-3.16-.13-6.33,0-9.49.17-4.34-.1-7.78-4.49-10.89C61,113.35,61.46,104,66.76,99a13.13,13.13,0,0,1,18.75.88c4.77,5.52,4.25,14.57-1.82,18.54-3.29,2.15-3.78,4.49-3.59,7.77.36,5.95-.65,12,1,17.87,3.72,13.18,16.68,22.2,29.83,20.65a28.21,28.21,0,0,0,25.38-27.46c.05-2,0-4,0-6Z"/><path class="cls-1" d="M80.11,108.26c0,1.24-.36,2.09-2,1a6,6,0,0,0-3.35-.59c-1.15,0-2.35,2.52-3.21.34-.75-1.87.54-3.5,2.31-4.45A4.44,4.44,0,0,1,80.11,108.26Z"/><path class="cls-1" d="M136.43,109.53c-.19-3.21,1.16-5.08,4-5.45,2.46-.32,4,1.24,4.62,3.56.22.91.44,3-1.46,1.82C141.11,107.9,138.91,109.14,136.43,109.53Z"/></g></g></svg>